<svg width="122" height="28" viewBox="0 0 122 28" fill="none" xmlns="http://www.w3.org/2000/svg">
<path d="M1.90595 4.662V10.2626C1.90595 11.1813 1.90595 12.2133 0 12.2133V13.7264V13.7468V15.2221C1.90595 15.2221 1.90595 16.2534 1.90595 17.1727V22.7728C1.90595 27.1192 4.28734 27.4347 8.33667 27.4347V24.0543C6.43072 24.0543 5.71666 23.7737 5.71666 22.6893V17.1442C5.71666 15.8637 5.80457 14.5262 4.68683 13.7171C5.80457 12.9092 5.71666 11.5716 5.71666 10.29V4.746C5.71666 3.66275 6.43131 3.381 8.33667 3.381V8.02094e-07C4.28734 -0.000581727 1.90595 0.315001 1.90595 4.662ZM12.6216 4.48058C11.5804 5" fill="white"/>
</svg>